<?xml version="1.0" encoding="UTF-8" ?>
<!DOCTYPE svg PUBLIC "-//W3C//DTD SVG 1.1//EN" "http://www.w3.org/Graphics/SVG/1.1/DTD/svg11.dtd">
<svg width="48pt" height="48pt" viewBox="0 0 64 64" version="1.1" xmlns="http://www.w3.org/2000/svg">
<path fill="#ffffff" fill-opacity="0.0" d=" M 0.00 0.00 L 64.00 0.00 L 64.00 64.00 L 0.00 64.00 L 0.00 0.00 Z" />
<path fill="#d3872f" d=" M 3.48 2.78 C 12.87 7.37 22.55 11.33 32.00 15.80 C 41.45 11.32 51.14 7.36 60.54 2.77 C 55.04 8.55 49.22 14.00 43.78 19.83 C 47.50 22.69 51.11 25.69 54.70 28.72 C 55.52 35.00 57.28 41.11 58.15 47.38 C 55.31 43.33 52.78 39.08 49.82 35.12 C 44.91 42.15 40.69 49.64 35.93 56.77 C 34.64 54.77 33.35 52.75 31.99 50.79 C 30.63 52.76 29.34 54.79 28.08 56.83 C 23.40 49.65 19.00 42.29 14.28 35.14 C 11.05 39.24 8.32 43.70 5.55 48.11 C 6.71 41.71 8.38 35.40 9.17 28.93 C 12.70 25.72 16.48 22.80 20.17 19.78 C 14.76 13.97 8.93 8.55 3.48 2.78 Z" />
<path fill="#835946" d=" M 1.49 3.34 C 6.67 8.90 12.22 14.10 17.44 19.63 C 14.66 21.82 11.93 24.07 9.17 26.29 C 6.54 18.66 4.03 11.00 1.49 3.34 Z" />
<path fill="#835946" d=" M 46.51 19.61 C 51.75 14.33 57.00 9.06 62.19 3.72 C 60.10 11.35 57.26 18.75 54.87 26.29 C 52.07 24.07 49.32 21.80 46.51 19.61 Z" />
<path fill="#bba796" d=" M 5.65 51.04 C 8.50 46.79 11.30 42.49 14.19 38.27 C 19.05 45.76 23.41 53.59 28.69 60.80 C 26.46 59.22 24.39 57.39 22.01 56.04 C 17.14 54.97 12.08 55.10 7.13 54.57 C 7.70 53.67 8.28 52.77 8.85 51.88 C 8.05 51.67 6.45 51.25 5.65 51.04 Z" />
<path fill="#bba796" d=" M 35.50 60.85 C 40.41 53.43 45.00 45.80 49.81 38.31 C 52.71 42.53 55.51 46.82 58.34 51.08 C 57.25 51.33 56.16 51.59 55.07 51.86 C 55.69 52.76 56.30 53.66 56.92 54.56 C 52.67 54.91 48.41 55.14 44.16 55.59 C 40.59 55.81 38.24 58.92 35.50 60.85 Z" />
<path fill="#835946" d=" M 29.06 58.49 C 30.06 57.02 31.03 55.54 32.03 54.07 C 32.99 55.56 33.95 57.04 34.92 58.52 C 33.96 60.05 33.00 61.59 32.04 63.12 C 31.03 61.58 30.04 60.04 29.06 58.49 Z" />
</svg>
